<?xml version="1.0" standalone="no"?>
<!DOCTYPE svg PUBLIC "-//W3C//DTD SVG 20010904//EN"
 "http://www.w3.org/TR/2001/REC-SVG-20010904/DTD/svg10.dtd">
<svg version="1.0" xmlns="http://www.w3.org/2000/svg"
 width="700.000000pt" height="700.000000pt" viewBox="0 0 700.000000 700.000000"
 preserveAspectRatio="xMidYMid meet">
<metadata>
Created by potrace 1.11, written by Peter Selinger 2001-2013
</metadata>
<g transform="translate(0.000000,700.000000) scale(0.100000,-0.100000)"
fill="#000000" stroke="none">
<path d="M3359 6996 c-2 -2 -31 -6 -64 -9 -231 -23 -495 -121 -707 -264 -77
-52 -94 -65 -177 -138 -44 -39 -161 -161 -209 -219 -63 -75 -161 -235 -222
-361 -109 -225 -162 -392 -204 -645 -26 -155 -26 -438 0 -610 19 -127 74 -338
108 -415 8 -16 17 -41 21 -55 13 -43 115 -242 163 -315 48 -75 150 -210 198
-261 170 -182 214 -264 209 -385 -3 -65 -22 -106 -65 -143 -31 -26 -54 -31
-118 -28 -78 4 -185 85 -411 310 -198 199 -279 264 -396 322 -118 59 -216 82
-360 84 -125 1 -178 -5 -254 -31 -165 -55 -271 -145 -341 -288 -77 -159 -76
-293 5 -406 l33 -46 -36 -21 c-118 -67 -236 -223 -285 -377 -27 -82 -30 -104
-33 -240 -2 -109 1 -144 20 -215 56 -211 184 -378 371 -481 33 -18 88 -59 123
-91 173 -160 373 -233 647 -237 268 -4 626 96 959 268 54 28 102 51 106 51 7
0 -19 -80 -60 -185 -4 -11 -14 -38 -23 -60 -31 -84 -92 -222 -120 -275 -218
-404 -537 -634 -864 -625 -77 2 -100 7 -156 34 -46 22 -72 42 -87 66 -27 44
-20 56 27 43 88 -22 127 -25 176 -12 171 45 275 229 220 392 -20 59 -108 149
-176 180 -102 48 -250 68 -354 50 -227 -41 -427 -233 -490 -471 -21 -80 -21
-222 2 -307 67 -257 295 -468 591 -545 88 -23 147 -29 269 -30 187 0 257 15
595 130 344 116 537 232 756 449 55 56 118 124 140 151 21 28 42 52 45 55 4 3
36 50 72 105 109 168 185 320 272 548 40 105 74 149 135 175 83 35 185 6 239
-68 15 -21 40 -74 55 -117 39 -111 52 -142 128 -293 263 -529 656 -866 1175
-1009 59 -16 147 -43 194 -60 238 -84 541 -89 749 -13 276 100 465 299 519
544 72 333 -132 666 -459 747 -65 17 -183 20 -240 7 -14 -3 -38 -8 -55 -12
-50 -10 -159 -72 -199 -113 -105 -108 -109 -282 -8 -397 78 -89 208 -129 302
-94 27 10 80 21 80 16 0 -39 -68 -116 -102 -116 -8 0 -18 -4 -24 -9 -18 -17
-105 -28 -196 -26 -336 11 -690 326 -878 780 -29 71 -140 364 -140 371 0 1 57
-26 128 -62 563 -284 1064 -341 1408 -158 68 36 162 105 204 149 19 20 53 46
75 57 196 101 329 262 396 478 20 64 23 97 24 220 0 172 -13 231 -82 369 -51
103 -129 192 -221 253 -50 33 -51 36 -34 52 11 9 31 41 47 72 91 180 -32 480
-245 593 -130 70 -203 86 -375 85 -109 -1 -144 -5 -215 -27 -190 -58 -280
-120 -530 -368 -91 -90 -181 -178 -200 -194 -88 -77 -203 -138 -246 -130 -10
2 -29 4 -41 4 -28 1 -79 45 -100 84 -24 47 -24 142 -1 207 22 59 81 145 151
219 243 257 412 571 499 926 15 62 18 76 24 130 4 28 8 53 10 56 2 4 7 44 11
90 33 387 -37 769 -203 1118 -156 328 -362 571 -644 759 -87 58 -281 153 -360
177 -90 27 -192 53 -238 60 -23 4 -54 9 -70 11 -34 6 -358 14 -363 10z m-2183
-3707 c95 -45 214 -136 214 -164 0 -22 80 -215 123 -295 68 -129 137 -222 238
-323 l98 -98 -124 -59 c-253 -121 -347 -150 -510 -156 -219 -7 -382 59 -427
175 -34 88 12 231 76 231 20 0 23 -5 24 -52 4 -105 23 -154 81 -206 82 -73
215 -89 324 -37 108 51 160 139 163 278 4 158 -48 288 -161 403 -71 72 -186
142 -262 159 -38 8 -37 6 -20 48 8 18 17 49 21 69 11 62 52 69 142 27z m4766
19 c9 -7 23 -38 31 -68 8 -30 18 -62 22 -72 5 -12 -1 -18 -27 -23 -61 -13
-173 -75 -234 -130 -76 -67 -127 -143 -162 -238 -22 -61 -26 -89 -26 -182 0
-100 2 -115 26 -161 53 -102 145 -156 268 -157 164 -2 257 83 269 246 5 75 8
82 26 79 51 -9 97 -98 89 -174 -17 -155 -175 -241 -427 -233 -178 5 -258 29
-527 157 -113 54 -123 61 -106 74 159 116 345 396 433 649 15 44 36 88 48 97
52 45 165 114 210 130 61 21 67 21 87 6z"/>
</g>
</svg>
